<svg width="83" height="27" viewBox="0 0 83 27" fill="none" xmlns="http://www.w3.org/2000/svg">
<path d="M21.4881 19.678C21.4881 20.5646 21.48 21.4512 21.4935 22.3351C21.4989 22.5922 21.4394 22.6726 21.1606 22.686C20.2865 22.7262 19.4178 22.8145 18.5518 22.9833C17.84 23.1226 17.1472 23.2994 16.4571 23.511C14.4409 24.1297 12.6142 25.1046 10.9092 26.318C10.7712 26.4144 10.6873 26.3823 10.5709 26.2966C9.94035 25.8439 9.28813 25.4261 8.60885 25.0538C6.93095 24.1297 5.17186 23.4306 3.27746 23.0529C2.27613 22.852 1.2721 22.7315 0.257238 22.6833C0.0813292 22.6753 0.0136719 22.6324 0.0136719 22.4449C0.0190845 20.5861 0.0190845 18.7299 0.0136719 16.871C0.0136719 16.6621 0.113805 16.6514 0.273476 16.6674C2.45475 16.9031 4.50612 17.546 6.44111 18.5692C7.88357 19.3325 9.23671 20.2298 10.5141 21.2369C10.6981 21.3816 10.8091 21.3869 11.0012 21.2369C13.0039 19.6566 15.1662 18.3335 17.5829 17.4629C18.5166 17.1255 19.4827 16.8898 20.4759 16.7665C20.733 16.7344 20.9901 16.7398 21.2337 16.6942C21.507 16.6433 21.4908 16.7451 21.4908 16.9246C21.4908 17.8433 21.4908 18.762 21.4908 19.678H21.4881Z" fill="#FC5C99"/>
<path d="M58.702 12.5775C59.1946 12.0043 59.7142 11.5114 60.4259 11.2731C60.9888 11.0829 61.5599 11.024 62.1553 11.1257C62.4124 11.1686 62.683 11.1713 62.9455 11.2115C63.1214 11.2382 63.2838 11.3079 63.2161 11.5302C63.07 12.023 63.07 12.54 62.959 13.0382C62.932 13.1614 62.8941 13.2257 62.7831 13.1855C62.3664 13.0328 61.9198 13.0355 61.4949 13.0167C60.5423 12.9766 59.6168 13.1078 59.0078 13.9783C58.8238 14.2408 58.702 14.5194 58.7047 14.8595C58.7183 16.4506 58.7047 18.0416 58.7156 19.6326C58.7156 19.8978 58.6425 19.9835 58.3719 19.9701C57.9307 19.9487 57.4842 19.954 57.0431 19.9701C56.8185 19.9781 56.7454 19.9085 56.7481 19.6835C56.7589 18.7862 56.7481 17.8889 56.7481 16.9916C56.7481 15.1756 56.7535 13.3623 56.7427 11.5463C56.7427 11.2784 56.813 11.1981 57.0837 11.2115C57.514 11.2329 57.947 11.2222 58.38 11.2141C58.5234 11.2141 58.6019 11.2409 58.6019 11.4043C58.6019 11.7873 58.5721 12.173 58.702 12.5748V12.5775Z" fill="white"/>
<path d="M44.3427 19.6701C44.3237 19.3407 44.3237 19.0085 44.3427 18.6791C44.3562 18.4461 44.2913 18.363 44.0396 18.3684C43.3819 18.3844 42.7216 18.363 42.0613 18.3791C41.8096 18.3844 41.7284 18.3202 41.7338 18.0603C41.7501 16.9836 41.7392 15.9042 41.7392 14.8247C41.7392 13.7159 41.7365 12.6043 41.7392 11.4954C41.7392 11.3079 41.7095 11.2088 41.4767 11.2115C40.083 11.2222 38.6892 11.2195 37.2928 11.2115C37.1115 11.2115 37.0438 11.265 37.0519 11.4499C37.0628 11.8115 37.0682 12.1757 37.0519 12.5373C37.0411 12.7623 37.1169 12.8293 37.3442 12.8239C38.056 12.8105 38.7704 12.8239 39.4849 12.8159C39.696 12.8132 39.7907 12.8534 39.788 13.0918C39.7772 14.7578 39.7799 16.4211 39.788 18.0871C39.788 18.3121 39.723 18.3791 39.4957 18.3737C38.7948 18.3603 38.0912 18.3818 37.3875 18.363C37.1088 18.355 37.0357 18.4461 37.0519 18.7059C37.0736 19.0246 37.0709 19.346 37.0519 19.6648C37.0384 19.9031 37.1115 19.9755 37.3577 19.9728C38.47 19.9594 39.585 19.9674 40.6973 19.9674C41.8096 19.9674 42.9246 19.9594 44.0369 19.9728C44.2831 19.9755 44.3589 19.9031 44.3427 19.6648V19.6701Z" fill="white"/>
<path d="M40.7571 9.85612C41.3335 9.71149 41.7341 9.29097 41.7341 8.82759C41.7476 8.50885 41.6339 8.28386 41.3552 8.08297C41.0764 7.88209 40.7977 7.94905 40.5189 7.94637C39.8586 7.94637 39.3688 8.74991 39.6583 9.33918C39.8667 9.76238 40.3051 9.96862 40.7598 9.85612H40.7571Z" fill="white"/>
<path d="M21.4798 1.01978C21.4798 0.851037 21.6124 0.679614 21.4852 0.51087L21.423 0.374268H6.10805C6.10805 0.414445 6.10805 0.451943 6.10805 0.492121C5.95109 0.516227 5.79412 0.556404 5.63716 0.56444C4.68996 0.607295 3.83748 0.93407 3.03371 1.4028C2.09462 1.95189 1.36934 2.71526 0.825374 3.64469C0.368011 4.42681 0.0594938 5.27321 0.0270183 6.16782C-0.0244013 7.60616 0.0161931 9.04986 0.0161931 10.4909C0.0161931 11.1846 0.0161931 11.8783 0.0161931 12.5721C0.0161931 12.6819 -0.0244013 12.8212 0.173158 12.8104C0.484381 12.7944 0.792899 12.856 1.10142 12.864C1.65621 12.8801 2.19746 12.9792 2.74143 13.0703C3.55061 13.2042 4.34897 13.389 5.12838 13.6435C6.07287 13.9515 6.97677 14.3479 7.86985 14.7872C8.77916 15.2345 9.63435 15.7568 10.4571 16.3326C10.6871 16.4934 10.8116 16.4826 11.0227 16.3326C12.3244 15.4032 13.7209 14.6291 15.212 14.0372C17.1605 13.2658 19.193 12.8533 21.2931 12.7971C21.5745 12.8024 21.4852 12.5881 21.4852 12.4542C21.4906 8.64273 21.4906 4.83126 21.4798 1.0171V1.01978Z" fill="white"/>
<path d="M81.9275 12.8211C81.5595 12.0953 81.0317 11.5488 80.2956 11.3024C79.021 10.8739 77.7842 10.9462 76.7747 11.9935C76.7531 11.9935 76.7314 11.9935 76.7098 11.9935C76.6259 11.814 76.5718 11.6238 76.5826 11.4256C76.5934 11.2462 76.5122 11.214 76.3526 11.2167C75.9087 11.2247 75.4649 11.2247 75.0238 11.2167C74.8614 11.214 74.7991 11.2489 74.8018 11.4256C74.8073 15.3121 74.8073 19.1986 74.8018 23.0851C74.8018 23.2967 74.8803 23.3288 75.0644 23.3261C75.5298 23.3154 75.9953 23.3074 76.4581 23.3288C76.7152 23.3422 76.7585 23.2511 76.7558 23.0208C76.7477 21.869 76.7558 20.7146 76.7612 19.5602C76.7612 19.4745 76.7125 19.3727 76.818 19.2923C77.6002 20.0878 78.5852 20.2459 79.619 20.0771C80.6691 19.9084 81.4404 19.3004 81.941 18.3575C82.2144 17.8406 82.3632 17.2915 82.4174 16.7156C82.4282 16.6085 82.4146 16.4987 82.55 16.4585V14.7925C82.3416 14.1363 82.2496 13.4532 81.9275 12.8184V12.8211ZM80.2848 17.3022C80.0331 18.0308 79.4946 18.462 78.7476 18.5638C77.9763 18.6709 77.3214 18.4031 76.8586 17.7442C76.7774 17.629 76.7504 17.5192 76.7504 17.3906C76.7531 16.2067 76.7558 15.0202 76.7585 13.8363C76.7585 13.6836 76.7747 13.539 76.9046 13.4345C76.9479 13.4452 76.9642 13.4211 76.9642 13.3836C77.2294 12.9068 77.6949 12.7301 78.1928 12.6845C79.5324 12.564 80.3173 13.4238 80.4878 14.6505C80.615 15.5585 80.5825 16.4344 80.2848 17.2995V17.3022Z" fill="white"/>
<path d="M54.7862 11.4203C54.6941 10.4828 54.3126 9.71677 53.5846 9.13019C52.751 8.45789 51.7497 8.22754 50.7024 8.20611C49.4818 8.182 48.2613 8.20611 47.0381 8.1954C46.7945 8.1954 46.7322 8.25432 46.7349 8.49539C46.7458 10.3516 46.7404 12.2104 46.7404 14.0666C46.7404 15.9335 46.7458 17.8031 46.7349 19.67C46.7349 19.9137 46.7999 19.9834 47.0435 19.9727C47.4846 19.9539 47.9311 19.9512 48.3723 19.9727C48.6429 19.9861 48.7214 19.9004 48.7187 19.6352C48.7051 18.3763 48.7187 17.1174 48.7078 15.8558C48.7051 15.58 48.7511 15.4621 49.0705 15.4782C49.6307 15.5076 50.1963 15.4594 50.7565 15.4916C51.5197 15.5344 52.2152 15.3496 52.8945 15.0255C53.7632 14.6104 54.3342 13.9381 54.64 13.0568C54.8213 12.5319 54.8457 11.9854 54.7916 11.4203H54.7862ZM52.4804 13.1077C52.3288 13.3434 52.1069 13.5041 51.8363 13.5952C51.8228 13.5899 51.8092 13.5925 51.7957 13.5979C51.4655 13.8175 51.1056 13.914 50.7024 13.9006C50.0474 13.8818 49.3952 13.8898 48.7403 13.8845C48.7241 13.8684 48.7051 13.8497 48.6889 13.8336C48.697 13.6997 48.7105 13.5657 48.7105 13.4345C48.7105 12.3149 48.7159 11.1953 48.7078 10.0757C48.7078 9.86409 48.7484 9.7757 48.9866 9.78374C49.5684 9.79981 50.153 9.76499 50.7348 9.79445C51.5061 9.83463 52.2152 10.0355 52.5832 10.8016C52.9594 11.581 52.9621 12.3578 52.4831 13.105L52.4804 13.1077Z" fill="white"/>
<path d="M34.2182 19.7932C34.156 17.7844 34.3075 15.7728 34.1425 13.7666C34.0586 12.7595 33.6662 11.9051 32.7189 11.423C32.202 11.1605 31.6364 11.0453 31.0329 11.0694C30.1317 11.1069 29.3956 11.4417 28.7948 12.0953C28.7407 12.1542 28.7001 12.2613 28.5973 12.2345C28.4836 12.2078 28.5269 12.0953 28.5215 12.0176C28.5107 11.8462 28.5025 11.6774 28.5025 11.506C28.5025 10.29 28.4944 9.07126 28.508 7.85523C28.508 7.61417 28.443 7.54185 28.1994 7.55256C27.7691 7.57131 27.3334 7.57667 26.9031 7.55256C26.6163 7.53649 26.5459 7.61952 26.5459 7.90344C26.5567 11.8113 26.554 15.7192 26.554 19.6271C26.554 19.6593 26.5567 19.6914 26.554 19.7236C26.527 19.9191 26.6108 19.9834 26.8084 19.978C27.2631 19.9646 27.7177 19.9593 28.1697 19.978C28.443 19.9914 28.5107 19.9004 28.5107 19.6379C28.4998 17.7361 28.5053 15.8371 28.508 13.9354C28.508 13.8041 28.508 13.6863 28.6 13.5524C29.0952 12.8211 30.0208 12.5908 30.8137 12.7006C31.3766 12.7783 31.8719 12.9872 32.0694 13.5497C32.1885 13.8925 32.2643 14.2622 32.2643 14.6345C32.2643 16.2683 32.2643 17.9022 32.2643 19.5361C32.2643 20.0209 32.1993 19.9673 32.6865 19.97C33.1303 19.9727 33.5741 19.97 34.0153 19.97C34.0613 19.9057 34.137 19.9271 34.1993 19.9137C34.137 19.9271 34.064 19.9057 34.0153 19.97C34.045 20.0691 34.1289 20.045 34.1993 20.0423C34.2669 20.0423 34.3211 20.0209 34.3292 19.9432C34.3373 19.8575 34.3075 19.8039 34.2182 19.7905V19.7932ZM28.5594 12.3604C28.554 12.3444 28.5458 12.3283 28.5404 12.3095C28.5458 12.3256 28.554 12.3417 28.5594 12.3604Z" fill="white"/>
<path d="M72.4313 14.0639C72.2905 13.555 72.093 13.0729 71.8142 12.6283C71.4353 12.0229 70.8887 11.6051 70.2013 11.3801L70.1932 11.3319C70.1823 11.348 70.1715 11.364 70.1607 11.3774C70.0497 11.3212 69.9415 11.2328 69.8251 11.214C69.1837 11.123 68.545 11.0132 67.8874 11.1337C66.4179 11.4042 65.4355 12.2533 64.832 13.5738C64.7968 13.5818 64.7698 13.5952 64.786 13.6407C64.694 13.9032 64.602 14.163 64.51 14.4255C64.4937 14.4282 64.4775 14.4309 64.4612 14.4363C64.4775 14.4523 64.491 14.4684 64.5072 14.4845C64.4098 15.0523 64.4775 15.6255 64.4639 16.196C64.4612 16.3165 64.3584 16.4746 64.4044 16.5522C64.6155 16.9031 64.6426 17.3103 64.8104 17.6772C65.4815 19.1289 66.6533 19.903 68.1959 20.1012C69.2622 20.2405 70.3285 20.1307 71.2703 19.5066C71.6492 19.2548 72.0307 19.0111 72.3014 18.6308C72.3907 18.5049 72.3907 18.4325 72.2716 18.3522C71.9874 18.154 71.7628 17.8915 71.5192 17.6504C71.4056 17.5379 71.3 17.5085 71.1972 17.6451C70.9455 17.9772 70.591 18.1674 70.2175 18.32C69.1052 18.7781 67.9415 18.7004 67.0647 17.712C66.7941 17.4094 66.5234 17.0853 66.5613 16.6192C66.5694 16.4987 66.3611 16.338 66.4937 16.2308C66.5857 16.1558 66.7832 16.1987 66.9321 16.1987C68.7155 16.1987 70.5017 16.1987 72.2851 16.1987C72.4177 16.1987 72.5747 16.2442 72.5639 16.0112C72.5368 15.363 72.6072 14.7121 72.4286 14.0693L72.4313 14.0639ZM70.2121 14.7818C69.0457 14.7818 67.8793 14.7818 66.7129 14.7818C66.5153 14.7818 66.4152 14.7845 66.5099 14.5246C66.6479 14.1389 66.767 13.7506 67.043 13.4318C67.0863 13.4399 67.0999 13.4211 67.0918 13.3809C67.3056 13.1077 67.5978 12.9229 67.8766 12.722C67.9009 12.7033 67.9307 12.6872 67.9578 12.6792C69.1594 12.3578 70.3664 13.0943 70.6072 14.2943C70.6884 14.7014 70.6262 14.7764 70.2121 14.7764V14.7818Z" fill="white"/>
</svg>
