<svg width="83" height="27" viewBox="0 0 83 27" fill="none" xmlns="http://www.w3.org/2000/svg">
<path d="M21.4861 19.4737C21.4861 20.3603 21.478 21.2469 21.4916 22.1308C21.497 22.3879 21.4374 22.4682 21.1587 22.4816C20.2845 22.5218 19.4158 22.6102 18.5498 22.7789C17.8381 22.9182 17.1453 23.095 16.4551 23.3066C14.439 23.9253 12.6122 24.9003 10.9072 26.1137C10.7692 26.2101 10.6853 26.1779 10.569 26.0922C9.9384 25.6396 9.28618 25.2217 8.6069 24.8494C6.929 23.9253 5.16991 23.2263 3.27551 22.8486C2.27418 22.6477 1.27014 22.5272 0.255285 22.479C0.079376 22.4709 0.0117188 22.4281 0.0117188 22.2406C0.0171313 20.3817 0.0171313 18.5255 0.0117188 16.6667C0.0117188 16.4577 0.111852 16.447 0.271523 16.4631C2.45279 16.6988 4.50416 17.3416 6.43916 18.3648C7.88161 19.1282 9.23476 20.0255 10.5121 21.0326C10.6962 21.1772 10.8071 21.1826 10.9993 21.0326C13.0019 19.4523 15.1642 18.1291 17.581 17.2586C18.5146 16.9211 19.4808 16.6854 20.474 16.5622C20.7311 16.5301 20.9882 16.5354 21.2317 16.4899C21.5051 16.439 21.4888 16.5408 21.4888 16.7202C21.4888 17.6389 21.4888 18.5577 21.4888 19.4737H21.4861Z" fill="#FC5C99"/>
<path d="M58.7015 12.3731C59.1941 11.7999 59.7137 11.3071 60.4254 11.0687C60.9884 10.8785 61.5594 10.8196 62.1548 10.9214C62.4119 10.9643 62.6825 10.9669 62.945 11.0071C63.1209 11.0339 63.2833 11.1035 63.2156 11.3258C63.0695 11.8187 63.0695 12.3356 62.9585 12.8338C62.9315 12.957 62.8936 13.0213 62.7826 12.9811C62.3659 12.8285 61.9193 12.8312 61.4944 12.8124C60.5418 12.7722 59.6163 12.9035 59.0074 13.774C58.8233 14.0365 58.7015 14.315 58.7042 14.6552C58.7178 16.2462 58.7043 17.8372 58.7151 19.4282C58.7151 19.6934 58.642 19.7791 58.3714 19.7657C57.9303 19.7443 57.4837 19.7497 57.0426 19.7657C56.818 19.7738 56.7449 19.7041 56.7476 19.4791C56.7584 18.5818 56.7476 17.6846 56.7476 16.7873C56.7476 14.9713 56.753 13.1579 56.7422 11.3419C56.7422 11.0741 56.8125 10.9937 57.0832 11.0071C57.5135 11.0285 57.9465 11.0178 58.3795 11.0098C58.5229 11.0098 58.6014 11.0366 58.6014 11.2C58.6014 11.583 58.5716 11.9687 58.7015 12.3705V12.3731Z" fill="white"/>
<path d="M44.3437 19.4655C44.3247 19.1361 44.3247 18.8039 44.3437 18.4745C44.3572 18.2415 44.2922 18.1584 44.0406 18.1638C43.3829 18.1799 42.7226 18.1584 42.0623 18.1745C41.8106 18.1799 41.7294 18.1156 41.7348 17.8558C41.751 16.779 41.7402 15.6996 41.7402 14.6202C41.7402 13.5113 41.7375 12.3997 41.7402 11.2908C41.7402 11.1033 41.7104 11.0042 41.4777 11.0069C40.084 11.0176 38.6902 11.0149 37.2938 11.0069C37.1125 11.0069 37.0448 11.0605 37.0529 11.2453C37.0637 11.6069 37.0692 11.9711 37.0529 12.3327C37.0421 12.5577 37.1179 12.6247 37.3452 12.6193C38.0569 12.6059 38.7714 12.6193 39.4859 12.6113C39.697 12.6086 39.7917 12.6488 39.789 12.8872C39.7781 14.5532 39.7809 16.2165 39.789 17.8825C39.789 18.1075 39.724 18.1745 39.4967 18.1691C38.7958 18.1558 38.0921 18.1772 37.3885 18.1584C37.1097 18.1504 37.0367 18.2415 37.0529 18.5013C37.0746 18.82 37.0719 19.1414 37.0529 19.4602C37.0394 19.6986 37.1125 19.7709 37.3587 19.7682C38.471 19.7548 39.586 19.7628 40.6983 19.7628C41.8106 19.7628 42.9256 19.7548 44.0379 19.7682C44.2841 19.7709 44.3599 19.6986 44.3437 19.4602V19.4655Z" fill="white"/>
<path d="M40.7581 9.65178C41.3345 9.50714 41.735 9.08662 41.735 8.62324C41.7486 8.3045 41.6349 8.07951 41.3562 7.87863C41.0774 7.67774 40.7987 7.7447 40.5199 7.74202C39.8596 7.74202 39.3697 8.54557 39.6593 9.13483C39.8677 9.55803 40.3061 9.76428 40.7608 9.65178H40.7581Z" fill="white"/>
<path d="M21.4788 0.815435C21.4788 0.646691 21.6114 0.475269 21.4842 0.306524L21.422 0.169922H6.10708C6.10708 0.210099 6.10708 0.247598 6.10708 0.287775C5.95011 0.311881 5.79315 0.352058 5.63618 0.360094C4.68898 0.40295 3.8365 0.729724 3.03273 1.19846C2.09365 1.74755 1.36836 2.51091 0.824398 3.44035C0.367034 4.22246 0.0585172 5.06886 0.0260417 5.96347C-0.0253778 7.40182 0.0152165 8.84552 0.0152165 10.2865C0.0152165 10.9803 0.0152165 11.674 0.0152165 12.3677C0.0152165 12.4775 -0.0253778 12.6168 0.172181 12.6061C0.483405 12.59 0.791922 12.6516 1.10044 12.6597C1.65523 12.6757 2.19649 12.7748 2.74045 12.8659C3.54963 12.9998 4.34799 13.1847 5.1274 13.4391C6.0719 13.7471 6.9758 14.1435 7.86887 14.5828C8.77819 15.0301 9.63338 15.5524 10.4561 16.1283C10.6861 16.289 10.8106 16.2783 11.0217 16.1283C12.3234 15.1989 13.7199 14.4248 15.211 13.8328C17.1596 13.0614 19.192 12.649 21.2921 12.5927C21.5735 12.5981 21.4842 12.3838 21.4842 12.2499C21.4896 8.43839 21.4896 4.62691 21.4788 0.812757V0.815435Z" fill="white"/>
<path d="M81.9265 12.6173C81.5585 11.8914 81.0308 11.345 80.2946 11.0986C79.02 10.67 77.7832 10.7423 76.7738 11.7896C76.7521 11.7896 76.7305 11.7896 76.7088 11.7896C76.6249 11.6102 76.5708 11.42 76.5816 11.2218C76.5924 11.0423 76.5112 11.0102 76.3516 11.0129C75.9077 11.0209 75.4639 11.0209 75.0228 11.0129C74.8604 11.0102 74.7982 11.045 74.8009 11.2218C74.8063 15.1083 74.8063 18.9947 74.8009 22.8812C74.8009 23.0928 74.8793 23.1249 75.0634 23.1223C75.5289 23.1115 75.9943 23.1035 76.4571 23.1249C76.7142 23.1383 76.7575 23.0473 76.7548 22.8169C76.7467 21.6652 76.7548 20.5107 76.7602 19.3563C76.7602 19.2706 76.7115 19.1688 76.8171 19.0885C77.5992 19.884 78.5843 20.042 79.6181 19.8733C80.6681 19.7045 81.4394 19.0965 81.9401 18.1537C82.2134 17.6367 82.3622 17.0876 82.4164 16.5118C82.4272 16.4046 82.4137 16.2948 82.549 16.2546V14.5886C82.3406 13.9324 82.2486 13.2494 81.9265 12.6146V12.6173ZM80.2838 17.0984C80.0321 17.8269 79.4936 18.2581 78.7466 18.3599C77.9754 18.4671 77.3204 18.1992 76.8576 17.5403C76.7765 17.4251 76.7494 17.3153 76.7494 17.1868C76.7521 16.0029 76.7548 14.8163 76.7575 13.6324C76.7575 13.4797 76.7738 13.3351 76.9037 13.2306C76.947 13.2414 76.9632 13.2172 76.9632 13.1797C77.2284 12.703 77.6939 12.5262 78.1918 12.4807C79.5315 12.3601 80.3163 13.2199 80.4868 14.4467C80.614 15.3547 80.5815 16.2305 80.2838 17.0957V17.0984Z" fill="white"/>
<path d="M54.7857 11.2166C54.6937 10.2791 54.3121 9.51304 53.5841 8.92645C52.7505 8.25415 51.7492 8.0238 50.7019 8.00238C49.4813 7.97827 48.2608 8.00238 47.0376 7.99166C46.794 7.99166 46.7318 8.05059 46.7345 8.29165C46.7453 10.1478 46.7399 12.0067 46.7399 13.8629C46.7399 15.7298 46.7453 17.5994 46.7345 19.4663C46.7345 19.71 46.7994 19.7796 47.043 19.7689C47.4841 19.7502 47.9306 19.7475 48.3718 19.7689C48.6424 19.7823 48.7209 19.6966 48.7182 19.4314C48.7046 18.1726 48.7182 16.9137 48.7073 15.6521C48.7046 15.3762 48.7506 15.2584 49.07 15.2744C49.6302 15.3039 50.1958 15.2557 50.756 15.2878C51.5192 15.3307 52.2147 15.1459 52.894 14.8218C53.7627 14.4066 54.3337 13.7343 54.6395 12.8531C54.8209 12.3281 54.8452 11.7817 54.7911 11.2166H54.7857ZM52.4799 12.904C52.3284 13.1397 52.1064 13.3004 51.8358 13.3915C51.8223 13.3861 51.8088 13.3888 51.7952 13.3942C51.4651 13.6138 51.1051 13.7102 50.7019 13.6968C50.047 13.6781 49.3947 13.6861 48.7398 13.6808C48.7236 13.6647 48.7046 13.6459 48.6884 13.6299C48.6965 13.4959 48.7101 13.362 48.7101 13.2308C48.7101 12.1112 48.7155 10.9916 48.7073 9.87195C48.7073 9.66035 48.7479 9.57196 48.9861 9.58C49.5679 9.59607 50.1525 9.56125 50.7344 9.59071C51.5056 9.63089 52.2147 9.83178 52.5828 10.5978C52.9589 11.3773 52.9616 12.154 52.4826 12.9013L52.4799 12.904Z" fill="white"/>
<path d="M34.2192 19.5892C34.157 17.5804 34.3085 15.5688 34.1434 13.5627C34.0595 12.5555 33.6671 11.7011 32.7199 11.219C32.203 10.9565 31.6374 10.8413 31.0339 10.8654C30.1327 10.9029 29.3966 11.2377 28.7958 11.8913C28.7417 11.9502 28.7011 12.0573 28.5982 12.0306C28.4846 12.0038 28.5279 11.8913 28.5225 11.8136C28.5116 11.6422 28.5035 11.4734 28.5035 11.302C28.5035 10.086 28.4954 8.86728 28.5089 7.65125C28.5089 7.41019 28.444 7.33787 28.2004 7.34858C27.7701 7.36733 27.3344 7.37269 26.9041 7.34858C26.6172 7.33251 26.5469 7.41554 26.5469 7.69946C26.5577 11.6074 26.555 15.5153 26.555 19.4232C26.555 19.4553 26.5577 19.4875 26.555 19.5196C26.5279 19.7151 26.6118 19.7794 26.8094 19.774C27.264 19.7607 27.7187 19.7553 28.1706 19.774C28.444 19.7874 28.5116 19.6964 28.5116 19.4339C28.5008 17.5322 28.5062 15.6331 28.5089 13.7314C28.5089 13.6002 28.5089 13.4823 28.601 13.3484C29.0962 12.6172 30.0218 12.3868 30.8147 12.4966C31.3776 12.5743 31.8729 12.7832 32.0704 13.3457C32.1895 13.6885 32.2653 14.0582 32.2653 14.4305C32.2653 16.0644 32.2653 17.6982 32.2653 19.3321C32.2653 19.8169 32.2003 19.7633 32.6874 19.766C33.1313 19.7687 33.5751 19.766 34.0162 19.766C34.0622 19.7017 34.138 19.7232 34.2003 19.7098C34.138 19.7232 34.065 19.7017 34.0162 19.766C34.046 19.8651 34.1299 19.841 34.2003 19.8383C34.2679 19.8383 34.322 19.8169 34.3302 19.7392C34.3383 19.6535 34.3085 19.5999 34.2192 19.5866V19.5892ZM28.5604 12.1565C28.5549 12.1404 28.5468 12.1243 28.5414 12.1056C28.5468 12.1216 28.5549 12.1377 28.5604 12.1565Z" fill="white"/>
<path d="M72.4293 13.8603C72.2886 13.3514 72.091 12.8693 71.8123 12.4247C71.4334 11.8193 70.8867 11.4015 70.1993 11.1765L70.1912 11.1283C70.1804 11.1444 70.1696 11.1604 70.1587 11.1738C70.0478 11.1176 69.9395 11.0292 69.8232 11.0104C69.1818 10.9194 68.5431 10.8095 67.8855 10.9301C66.4159 11.2006 65.4336 12.0497 64.83 13.3702C64.7949 13.3782 64.7678 13.3916 64.784 13.4371C64.692 13.6996 64.6 13.9594 64.508 14.2219C64.4918 14.2246 64.4755 14.2273 64.4593 14.2326C64.4755 14.2487 64.4891 14.2648 64.5053 14.2808C64.4079 14.8487 64.4755 15.4219 64.462 15.9924C64.4593 16.1129 64.3564 16.271 64.4025 16.3486C64.6135 16.6995 64.6406 17.1066 64.8084 17.4736C65.4796 18.9253 66.6514 19.6994 68.194 19.8976C69.2602 20.0369 70.3265 19.9271 71.2683 19.303C71.6472 19.0512 72.0288 18.8075 72.2994 18.4271C72.3887 18.3012 72.3887 18.2289 72.2696 18.1486C71.9855 17.9504 71.7609 17.6879 71.5173 17.4468C71.4036 17.3343 71.2981 17.3049 71.1952 17.4415C70.9436 17.7736 70.589 17.9638 70.2156 18.1164C69.1033 18.5745 67.9396 18.4968 67.0627 17.5084C66.7921 17.2058 66.5215 16.8817 66.5594 16.4156C66.5675 16.2951 66.3591 16.1344 66.4917 16.0272C66.5837 15.9522 66.7813 15.9951 66.9301 15.9951C68.7136 15.9951 70.4997 15.9951 72.2832 15.9951C72.4158 15.9951 72.5727 16.0406 72.5619 15.8076C72.5349 15.1594 72.6052 14.5085 72.4266 13.8657L72.4293 13.8603ZM70.2102 14.5782C69.0437 14.5782 67.8773 14.5782 66.7109 14.5782C66.5134 14.5782 66.4132 14.5808 66.5079 14.321C66.646 13.9353 66.765 13.5469 67.0411 13.2282C67.0844 13.2362 67.0979 13.2175 67.0898 13.1773C67.3036 12.9041 67.5959 12.7193 67.8746 12.5184C67.899 12.4997 67.9288 12.4836 67.9558 12.4756C69.1574 12.1541 70.3644 12.8907 70.6053 14.0907C70.6865 14.4978 70.6242 14.5728 70.2102 14.5728V14.5782Z" fill="white"/>
</svg>
